<svg width="180" height="180" viewBox="0 0 180 180" fill="none" xmlns="http://www.w3.org/2000/svg">
<path d="M0 65.808C0 11.6151 11.6151 0 65.808 0H114.192C168.385 0 180 11.6151 180 65.808V114.192C180 168.385 168.385 180 114.192 180H65.808C11.6151 180 0 168.385 0 114.192V65.808Z" fill="url(#paint0_radial_3_78)"/>
<g filter="url(#filter0_d_3_78)">
<path d="M40.9982 104.799L43.8045 115.286C47.0831 127.526 48.7278 133.649 52.4461 137.617C55.3808 140.748 59.1774 142.939 63.3566 143.914C68.6545 145.151 74.7774 143.512 87.0232 140.234C99.2582 136.955 105.381 135.316 109.349 131.597C109.675 131.288 110 130.968 110.304 130.642C108.456 130.474 106.618 130.202 104.8 129.828C101.022 129.079 96.5333 127.874 91.2246 126.452L90.6438 126.294L90.5081 126.262C84.7326 124.709 79.907 123.417 76.053 122.028C71.9982 120.562 68.3179 118.754 65.1859 115.823C60.8777 111.787 57.8629 106.564 56.5226 100.815C55.5455 96.6403 55.8278 92.5475 56.5877 88.3081C57.3151 84.2424 58.6179 79.368 60.1812 73.5328L63.0852 62.7091L63.1829 62.3291C52.7609 65.1354 47.2731 66.7964 43.6145 70.2216C40.4797 73.1585 38.2866 76.9593 37.3125 81.143C36.0749 86.4354 37.7141 92.5583 40.9982 104.799Z" fill="white" fill-opacity="0.86" shape-rendering="crispEdges"/>
</g>
<g filter="url(#filter1_d_3_78)">
<path fill-rule="evenodd" clip-rule="evenodd" d="M139.111 83.081L136.3 93.5681C133.016 105.809 131.376 111.931 127.658 115.899C124.724 119.032 120.927 121.225 116.748 122.201C116.221 122.326 115.689 122.419 115.146 122.484C110.18 123.097 104.116 121.474 93.0864 118.521C80.8459 115.237 74.723 113.598 70.7551 109.88C67.6212 106.944 65.4281 103.145 64.453 98.9637C63.2154 93.6658 64.8547 87.5483 68.1387 75.3079L70.9451 64.8208L72.2695 59.9083C74.7393 50.8651 76.4003 45.8875 79.5866 42.484C82.5213 39.3531 86.318 37.162 90.4972 36.1874C95.795 34.9498 101.918 36.5891 114.164 39.8731C126.399 43.1517 132.522 44.791 136.49 48.5038C139.624 51.4407 141.818 55.2415 142.792 59.4252C144.029 64.7231 142.39 70.8406 139.111 83.081ZM86.0298 78.1414C86.1684 77.6249 86.4073 77.1407 86.733 76.7166C87.0587 76.2925 87.4648 75.9367 87.928 75.6695C88.3913 75.4023 88.9026 75.2291 89.4329 75.1596C89.9631 75.0901 90.5018 75.1257 91.0183 75.2645L117.236 82.2939C117.766 82.4196 118.266 82.6504 118.705 82.9726C119.144 83.2949 119.514 83.702 119.793 84.1699C120.072 84.6378 120.255 85.1569 120.329 85.6965C120.404 86.2361 120.37 86.7853 120.229 87.3114C120.087 87.8375 119.842 88.3299 119.507 88.7594C119.171 89.1889 118.754 89.5468 118.278 89.8119C117.802 90.0769 117.277 90.2438 116.736 90.3025C116.194 90.3613 115.646 90.3107 115.125 90.1538L88.9067 83.1298C87.8648 82.85 86.9766 82.168 86.4371 81.2336C85.8977 80.2993 85.7512 79.1837 86.0298 78.1414ZM81.8176 93.8775C82.0975 92.8356 82.7795 91.9474 83.7138 91.4079C84.6481 90.8685 85.7583 90.722 86.8006 91.0006L102.531 95.2183C103.064 95.3412 103.566 95.5701 104.009 95.8914C104.451 96.2127 104.824 96.6197 105.105 97.0882C105.387 97.5567 105.571 98.0772 105.647 98.6185C105.723 99.1597 105.69 99.7108 105.548 100.239C105.407 100.767 105.16 101.261 104.824 101.692C104.487 102.122 104.067 102.481 103.589 102.746C103.111 103.011 102.585 103.177 102.041 103.234C101.497 103.291 100.948 103.238 100.425 103.078L84.6945 98.866C84.178 98.7274 83.6938 98.4885 83.2697 98.1628C82.8456 97.8371 82.4898 97.431 82.2226 96.9677C81.9554 96.5045 81.7822 95.9932 81.7127 95.4629C81.6432 94.9327 81.6788 94.394 81.8176 93.8775Z" fill="white" fill-opacity="0.86" shape-rendering="crispEdges"/>
</g>
<defs>
<filter id="filter0_d_3_78" x="36.034" y="62.3291" width="76.2659" height="85.0595" filterUnits="userSpaceOnUse" color-interpolation-filters="sRGB">
<feFlood flood-opacity="0" result="BackgroundImageFix"/>
<feColorMatrix in="SourceAlpha" type="matrix" values="0 0 0 0 0 0 0 0 0 0 0 0 0 0 0 0 0 0 127 0" result="hardAlpha"/>
<feOffset dx="0.56474" dy="1.63147"/>
<feGaussianBlur stdDeviation="0.715337"/>
<feComposite in2="hardAlpha" operator="out"/>
<feColorMatrix type="matrix" values="0 0 0 0 0 0 0 0 0 0 0 0 0 0 0 0 0 0 0.21 0"/>
<feBlend mode="normal" in2="BackgroundImageFix" result="effect1_dropShadow_3_78"/>
<feBlend mode="normal" in="SourceGraphic" in2="effect1_dropShadow_3_78" result="shape"/>
</filter>
<filter id="filter1_d_3_78" x="63.1746" y="35.7749" width="82.0251" height="89.8997" filterUnits="userSpaceOnUse" color-interpolation-filters="sRGB">
<feFlood flood-opacity="0" result="BackgroundImageFix"/>
<feColorMatrix in="SourceAlpha" type="matrix" values="0 0 0 0 0 0 0 0 0 0 0 0 0 0 0 0 0 0 127 0" result="hardAlpha"/>
<feOffset dx="0.56474" dy="1.63147"/>
<feGaussianBlur stdDeviation="0.715337"/>
<feComposite in2="hardAlpha" operator="out"/>
<feColorMatrix type="matrix" values="0 0 0 0 0 0 0 0 0 0 0 0 0 0 0 0 0 0 0.21 0"/>
<feBlend mode="normal" in2="BackgroundImageFix" result="effect1_dropShadow_3_78"/>
<feBlend mode="normal" in="SourceGraphic" in2="effect1_dropShadow_3_78" result="shape"/>
</filter>
<radialGradient id="paint0_radial_3_78" cx="0" cy="0" r="1" gradientUnits="userSpaceOnUse" gradientTransform="translate(14.2875 8.88749) rotate(45.5579) scale(220.601 223.694)">
<stop stop-color="#BA91FF"/>
<stop offset="0.228154" stop-color="#BA91FF"/>
<stop offset="0.641875" stop-color="#FE75AD"/>
<stop offset="1" stop-color="#FBD6A2"/>
<stop offset="1" stop-color="#FBD5A1"/>
</radialGradient>
</defs>
</svg>
