<svg width="169" height="52" viewBox="0 0 169 52" fill="none" xmlns="http://www.w3.org/2000/svg">
<path d="M0 19.2533C0 4.13978 3.23927 0.900513 18.3528 0.900513H31.8463C46.9598 0.900513 50.1991 4.13978 50.1991 19.2533V32.7468C50.1991 47.8603 46.9598 51.0996 31.8463 51.0996H18.3528C3.23927 51.0996 0 47.8603 0 32.7468V19.2533Z" fill="url(#paint0_radial_3_60)"/>
<g filter="url(#filter0_d_3_60)">
<path d="M11.4337 30.1272L12.2164 33.0519C13.1307 36.4655 13.5894 38.1731 14.6264 39.2797C15.4448 40.1529 16.5036 40.764 17.6691 41.0357C19.1466 41.3809 20.8542 40.9237 24.2694 40.0094C27.6815 39.095 29.3891 38.6379 30.4957 37.6009C30.5865 37.5146 30.6774 37.4253 30.7621 37.3345C30.2466 37.2876 29.7341 37.2118 29.2271 37.1074C28.1735 36.8985 26.9216 36.5624 25.4411 36.1658L25.2791 36.1219L25.2412 36.1128C23.6305 35.6799 22.2848 35.3196 21.2099 34.932C20.0791 34.5233 19.0528 34.0192 18.1793 33.2017C16.9778 32.0761 16.137 30.6195 15.7632 29.016C15.4908 27.8519 15.5695 26.7105 15.7814 25.5282C15.9843 24.3944 16.3476 23.035 16.7835 21.4076L17.5934 18.389L17.6207 18.2831C14.7142 19.0657 13.1837 19.529 12.1634 20.4842C11.2891 21.3032 10.6775 22.3632 10.4058 23.53C10.0607 25.0059 10.5179 26.7135 11.4337 30.1272Z" fill="white" fill-opacity="0.86" shape-rendering="crispEdges"/>
</g>
<g filter="url(#filter1_d_3_60)">
<path fill-rule="evenodd" clip-rule="evenodd" d="M38.7959 24.0705L38.0118 26.9952C37.0959 30.4088 36.6387 32.1164 35.6018 33.223C34.7835 34.0967 33.7247 34.7083 32.559 34.9805C32.4122 35.0154 32.2638 35.0411 32.1124 35.0593C30.7273 35.2303 29.0364 34.7777 25.9603 33.9542C22.5466 33.0383 20.839 32.5811 19.7324 31.5442C18.8585 30.7255 18.2468 29.6661 17.9749 28.4999C17.6298 27.0224 18.0869 25.3163 19.0028 21.9027L19.7854 18.978L20.1548 17.608C20.8436 15.086 21.3068 13.6978 22.1954 12.7486C23.0139 11.8755 24.0727 11.2644 25.2382 10.9926C26.7157 10.6475 28.4233 11.1046 31.8384 12.0205C35.2506 12.9348 36.9582 13.392 38.0648 14.4275C38.939 15.2465 39.5506 16.3065 39.8223 17.4733C40.1674 18.9507 39.7103 20.6568 38.7959 24.0705ZM23.9923 22.6929C24.031 22.5488 24.0976 22.4138 24.1884 22.2955C24.2793 22.1773 24.3925 22.078 24.5217 22.0035C24.6509 21.929 24.7935 21.8807 24.9414 21.8613C25.0892 21.8419 25.2395 21.8519 25.3835 21.8906L32.6952 23.851C32.8431 23.886 32.9824 23.9504 33.1049 24.0402C33.2274 24.1301 33.3306 24.2437 33.4084 24.3741C33.4862 24.5046 33.5371 24.6494 33.5579 24.7999C33.5788 24.9504 33.5692 25.1035 33.5298 25.2503C33.4904 25.397 33.4219 25.5343 33.3284 25.6541C33.235 25.7739 33.1184 25.8737 32.9857 25.9476C32.853 26.0215 32.7068 26.0681 32.5557 26.0844C32.4047 26.1008 32.2519 26.0867 32.1064 26.043L24.7946 24.0841C24.5041 24.006 24.2564 23.8158 24.1059 23.5553C23.9555 23.2947 23.9146 22.9836 23.9923 22.6929ZM22.8176 27.0814C22.8957 26.7909 23.0859 26.5432 23.3464 26.3927C23.607 26.2423 23.9166 26.2014 24.2073 26.2791L28.5943 27.4554C28.7429 27.4896 28.883 27.5535 29.0063 27.6431C29.1296 27.7327 29.2337 27.8462 29.3122 27.9769C29.3907 28.1075 29.4421 28.2527 29.4633 28.4036C29.4845 28.5546 29.4751 28.7083 29.4357 28.8555C29.3962 29.0027 29.3275 29.1405 29.2337 29.2607C29.1398 29.3808 29.0227 29.4808 28.8894 29.5547C28.7561 29.6286 28.6092 29.6749 28.4576 29.6908C28.306 29.7067 28.1527 29.6919 28.007 29.6474L23.6199 28.4726C23.4759 28.434 23.3409 28.3674 23.2226 28.2765C23.1043 28.1857 23.0051 28.0724 22.9306 27.9433C22.856 27.8141 22.8077 27.6715 22.7883 27.5236C22.769 27.3757 22.7789 27.2255 22.8176 27.0814Z" fill="white" fill-opacity="0.86" shape-rendering="crispEdges"/>
</g>
<path d="M158.924 33.14C158.554 32.8758 158.452 32.5927 158.618 32.2907L159.196 31.2375C159.4 30.8601 159.717 30.8148 160.147 31.1016C160.577 31.3885 161.083 31.5999 161.665 31.7358C162.253 31.8717 162.789 31.9396 163.273 31.9396C163.612 31.9396 163.929 31.9057 164.224 31.8377C164.518 31.7698 164.767 31.6377 164.971 31.4414C165.175 31.2451 165.277 30.9582 165.277 30.5807C165.277 30.3542 165.217 30.1617 165.096 30.0032C164.975 29.8447 164.82 29.7239 164.632 29.6408C164.443 29.5578 164.243 29.4898 164.031 29.437C163.752 29.369 163.348 29.2558 162.82 29.0973C162.299 28.9387 161.797 28.7538 161.314 28.5424C160.913 28.3687 160.521 28.1272 160.136 27.8176C159.758 27.5006 159.479 27.1495 159.298 26.7645C159.124 26.3795 159.037 25.9038 159.037 25.3376C159.037 24.5751 159.256 23.907 159.694 23.3332C160.14 22.7595 160.713 22.3631 161.415 22.1442C162.118 21.9253 162.993 21.8158 164.043 21.8158C164.752 21.8158 165.443 21.9177 166.115 22.1215C166.787 22.3254 167.266 22.5179 167.553 22.6991C168.006 22.986 168.119 23.2917 167.893 23.6163L167.202 24.6242C166.991 24.9262 166.651 24.9488 166.183 24.6921C165.828 24.4959 165.477 24.3373 165.13 24.2165C164.79 24.0957 164.409 24.0353 163.986 24.0353C163.699 24.0353 163.424 24.0655 163.159 24.1259C162.895 24.1863 162.669 24.2996 162.48 24.4657C162.299 24.6317 162.208 24.8507 162.208 25.1225C162.208 25.4093 162.291 25.6358 162.457 25.8019C162.631 25.9605 162.827 26.0775 163.046 26.153C163.273 26.2285 163.488 26.3002 163.692 26.3681C164.114 26.504 164.541 26.6361 164.971 26.7645C165.402 26.8853 165.839 27.0325 166.285 27.2061C166.67 27.3571 167.044 27.5723 167.406 27.8516C167.768 28.1309 168.033 28.4858 168.199 28.9161C168.365 29.3464 168.448 29.8371 168.448 30.3882C168.448 31.1205 168.229 31.8 167.791 32.4266C167.353 33.0532 166.776 33.4986 166.058 33.7628C165.341 34.0271 164.507 34.1592 163.556 34.1592C162.491 34.1592 161.585 34.0837 160.838 33.9327C160.091 33.7817 159.453 33.5175 158.924 33.14Z" fill="url(#paint1_linear_3_60)"/>
<path d="M145.233 27.9875C145.233 26.0775 145.709 24.5714 146.66 23.4691C147.619 22.3669 148.97 21.8158 150.714 21.8158C152.737 21.8158 154.24 22.3367 155.221 23.3785C156.203 24.4204 156.693 26.0963 156.693 28.4065C156.693 28.8595 156.482 29.0859 156.059 29.0859H148.585C148.706 30.3392 149.015 31.1281 149.514 31.4527C150.012 31.7773 150.59 31.9396 151.246 31.9396C151.873 31.9396 152.352 31.8566 152.685 31.6905C153.017 31.5244 153.296 31.2979 153.523 31.0111C153.779 30.6789 154.096 30.626 154.474 30.8525L155.606 31.5433C156.052 31.8151 156.116 32.1397 155.799 32.5172C155.338 33.0683 154.798 33.4797 154.179 33.7515C153.56 34.0233 152.583 34.1592 151.246 34.1592C149.08 34.1592 147.536 33.6081 146.615 32.5058C145.694 31.4036 145.233 29.8975 145.233 27.9875ZM148.597 26.8211H153.523C153.523 26.0058 153.319 25.3414 152.911 24.828C152.503 24.3071 151.854 24.0467 150.963 24.0467C150.254 24.0467 149.691 24.2958 149.276 24.7941C148.861 25.2848 148.634 25.9605 148.597 26.8211Z" fill="url(#paint2_linear_3_60)"/>
<path d="M136.434 24.307C135.989 24.307 135.766 24.1183 135.766 23.7408V22.6084C135.766 22.2309 135.989 22.0422 136.434 22.0422H137.204V21.6459C137.204 21.3061 137.284 20.9966 137.442 20.7173L138.314 19.1885C138.48 18.9016 138.676 18.7582 138.903 18.7582H139.696C140.149 18.7582 140.375 18.9847 140.375 19.4376V22.0422H142.21C142.655 22.0422 142.878 22.2309 142.878 22.6084V23.7408C142.878 24.1183 142.655 24.307 142.21 24.307H140.375V29.9238C140.375 30.6939 140.428 31.2488 140.534 31.5885C140.647 31.9207 140.934 32.0868 141.394 32.0868C141.628 32.0868 141.893 32.049 142.187 31.9735C142.481 31.8905 142.712 31.8112 142.878 31.7357C143.142 31.6149 143.316 31.7018 143.399 31.9962L143.738 33.2871C143.806 33.5438 143.708 33.7326 143.444 33.8533C143.195 33.9666 142.851 34.0685 142.413 34.1591C141.983 34.2572 141.549 34.3063 141.111 34.3063C140.032 34.3063 139.111 34.0836 138.348 33.6382C137.586 33.1928 137.204 32.2755 137.204 30.8864V24.307H136.434Z" fill="url(#paint3_linear_3_60)"/>
<path d="M122.539 27.9875C122.539 26.0624 123.034 24.5525 124.023 23.4578C125.019 22.3631 126.499 21.8158 128.462 21.8158C130.425 21.8158 131.901 22.3631 132.89 23.4578C133.886 24.5525 134.385 26.0624 134.385 27.9875C134.385 29.9126 133.886 31.4225 132.89 32.5172C131.901 33.6118 130.425 34.1592 128.462 34.1592C126.499 34.1592 125.019 33.6118 124.023 32.5172C123.034 31.4225 122.539 29.9126 122.539 27.9875ZM125.891 27.9875C125.891 29.4219 126.11 30.4411 126.548 31.045C126.994 31.6414 127.632 31.9396 128.462 31.9396C129.292 31.9396 129.927 31.6414 130.365 31.045C130.81 30.4411 131.033 29.4219 131.033 27.9875C131.033 26.5531 130.81 25.5377 130.365 24.9413C129.927 24.3373 129.292 24.0353 128.462 24.0353C127.632 24.0353 126.994 24.3373 126.548 24.9413C126.11 25.5377 125.891 26.5531 125.891 27.9875Z" fill="url(#paint4_linear_3_60)"/>
<path d="M107.569 33.9326C107.04 33.9326 106.776 33.6495 106.776 33.0833V18.543C106.776 17.9768 107.04 17.6937 107.569 17.6937H109.245C109.894 17.6937 110.385 17.958 110.717 18.4864L116.492 27.7609H116.572C116.534 27.308 116.515 26.855 116.515 26.402V18.543C116.515 17.9768 116.779 17.6937 117.308 17.6937H119.029C119.557 17.6937 119.822 17.9768 119.822 18.543V33.0833C119.822 33.6495 119.557 33.9326 119.029 33.9326H117.466C116.817 33.9326 116.326 33.6684 115.994 33.1399L110.105 23.6956H110.026C110.064 24.1485 110.083 24.6015 110.083 25.0545V33.0833C110.083 33.6495 109.819 33.9326 109.29 33.9326H107.569Z" fill="url(#paint5_linear_3_60)"/>
<path d="M97.0713 24.307C96.6259 24.307 96.4032 24.1183 96.4032 23.7408V22.6084C96.4032 22.2309 96.6259 22.0422 97.0713 22.0422H97.8414V21.6459C97.8414 21.3061 97.9206 20.9966 98.0792 20.7173L98.9511 19.1885C99.1172 18.9016 99.3135 18.7582 99.54 18.7582H100.333C100.786 18.7582 101.012 18.9847 101.012 19.4376V22.0422H102.847C103.292 22.0422 103.515 22.2309 103.515 22.6084V23.7408C103.515 24.1183 103.292 24.307 102.847 24.307H101.012V29.9238C101.012 30.6939 101.065 31.2488 101.171 31.5885C101.284 31.9207 101.571 32.0868 102.031 32.0868C102.265 32.0868 102.53 32.049 102.824 31.9735C103.118 31.8905 103.349 31.8112 103.515 31.7357C103.779 31.6149 103.953 31.7018 104.036 31.9962L104.375 33.2871C104.443 33.5438 104.345 33.7326 104.081 33.8533C103.832 33.9666 103.488 34.0685 103.051 34.1591C102.62 34.2572 102.186 34.3063 101.748 34.3063C100.669 34.3063 99.7476 34.0836 98.9851 33.6382C98.2226 33.1928 97.8414 32.2755 97.8414 30.8864V24.307H97.0713Z" fill="url(#paint6_linear_3_60)"/>
<path d="M85.8377 33.14C85.4678 32.8758 85.3659 32.5927 85.532 32.2907L86.1095 31.2375C86.3133 30.8601 86.6304 30.8148 87.0607 31.1016C87.4911 31.3885 87.9969 31.5999 88.5782 31.7358C89.167 31.8717 89.7031 31.9396 90.1862 31.9396C90.5259 31.9396 90.843 31.9057 91.1375 31.8377C91.4319 31.7698 91.681 31.6377 91.8848 31.4414C92.0887 31.2451 92.1906 30.9582 92.1906 30.5807C92.1906 30.3542 92.1302 30.1617 92.0094 30.0032C91.8886 29.8447 91.7339 29.7239 91.5451 29.6408C91.3564 29.5578 91.1563 29.4898 90.9449 29.437C90.6656 29.369 90.2617 29.2558 89.7332 29.0973C89.2123 28.9387 88.7103 28.7538 88.2271 28.5424C87.827 28.3687 87.4344 28.1272 87.0494 27.8176C86.6719 27.5006 86.3926 27.1495 86.2114 26.7645C86.0378 26.3795 85.951 25.9038 85.951 25.3376C85.951 24.5751 86.1699 23.907 86.6078 23.3332C87.0532 22.7595 87.6269 22.3631 88.329 22.1442C89.0311 21.9253 89.9069 21.8158 90.9563 21.8158C91.6659 21.8158 92.3567 21.9177 93.0286 22.1215C93.7005 22.3254 94.1799 22.5179 94.4668 22.6991C94.9197 22.986 95.033 23.2917 94.8065 23.6163L94.1157 24.6242C93.9043 24.9262 93.5646 24.9488 93.0965 24.6921C92.7417 24.4959 92.3907 24.3373 92.0434 24.2165C91.7037 24.0957 91.3224 24.0353 90.8996 24.0353C90.6128 24.0353 90.3372 24.0655 90.073 24.1259C89.8087 24.1863 89.5823 24.2996 89.3935 24.4657C89.2123 24.6317 89.1217 24.8507 89.1217 25.1225C89.1217 25.4093 89.2048 25.6358 89.3709 25.8019C89.5445 25.9605 89.7408 26.0775 89.9597 26.153C90.1862 26.2285 90.4014 26.3002 90.6052 26.3681C91.028 26.504 91.4545 26.6361 91.8848 26.7645C92.3152 26.8853 92.753 27.0325 93.1985 27.2061C93.5835 27.3571 93.9572 27.5723 94.3196 27.8516C94.6819 28.1309 94.9462 28.4858 95.1123 28.9161C95.2783 29.3464 95.3614 29.8371 95.3614 30.3882C95.3614 31.1205 95.1424 31.8 94.7046 32.4266C94.2667 33.0532 93.6892 33.4986 92.972 33.7628C92.2548 34.0271 91.4206 34.1592 90.4693 34.1592C89.4048 34.1592 88.4989 34.0837 87.7515 33.9327C87.0041 33.7817 86.3662 33.5175 85.8377 33.14Z" fill="url(#paint7_linear_3_60)"/>
<path d="M72.713 30.7619C72.713 29.252 73.4339 28.1574 74.8759 27.4779C76.3178 26.7984 77.9636 26.4361 79.8132 26.3908V25.9378C79.8132 25.2433 79.6396 24.7525 79.2923 24.4657C78.945 24.1788 78.4619 24.0353 77.8428 24.0353C77.4049 24.0353 77.0162 24.0995 76.6764 24.2279C76.3442 24.3486 76.0536 24.4921 75.8045 24.6582C75.5629 24.8167 75.3439 24.979 75.1477 25.1451C74.8004 25.4471 74.5135 25.4622 74.287 25.1904L73.3471 24.0353C73.1131 23.7485 73.1697 23.454 73.517 23.1521C73.7812 22.918 74.087 22.7142 74.4342 22.5405C74.7891 22.3669 75.2571 22.2046 75.8384 22.0536C76.4197 21.8951 77.1747 21.8158 78.1033 21.8158C79.6736 21.8158 80.8777 22.1782 81.7157 22.9029C82.5612 23.6277 82.984 24.6959 82.984 26.1077V33.2532C82.984 33.7062 82.7575 33.9327 82.3046 33.9327H80.4474C80.0397 33.9327 79.8359 33.7062 79.8359 33.2532V32.9135H79.8132C79.3678 33.3438 78.8318 33.6609 78.2052 33.8648C77.5861 34.061 77.0162 34.1592 76.4952 34.1592C75.2571 34.1592 74.3172 33.8572 73.6755 33.2532C73.0338 32.6417 72.713 31.8113 72.713 30.7619ZM76.0649 30.694C76.0649 30.9582 76.1178 31.1885 76.2235 31.3848C76.3291 31.5735 76.4952 31.7132 76.7217 31.8037C76.9482 31.8943 77.2011 31.9396 77.4804 31.9396C77.8655 31.9396 78.2392 31.8868 78.6015 31.7811C78.9639 31.6754 79.3678 31.4263 79.8132 31.0337V28.5763C78.5449 28.7198 77.6956 28.9048 77.2653 29.1312C76.835 29.3577 76.5254 29.5918 76.3367 29.8333C76.1555 30.0749 76.0649 30.3618 76.0649 30.694Z" fill="url(#paint8_linear_3_60)"/>
<path d="M61.0943 33.9326C60.5659 33.9326 60.3016 33.6495 60.3016 33.0833V18.543C60.3016 17.9768 60.5659 17.6937 61.0943 17.6937H70.0518C70.618 17.6937 70.9011 17.9391 70.9011 18.4298V19.7661C70.9011 20.2568 70.618 20.5021 70.0518 20.5021H63.6083V24.443H69.1232C69.6894 24.443 69.9725 24.6883 69.9725 25.179V26.5153C69.9725 27.006 69.6894 27.2514 69.1232 27.2514H63.6083V33.0833C63.6083 33.6495 63.3441 33.9326 62.8156 33.9326H61.0943Z" fill="url(#paint9_linear_3_60)"/>
<defs>
<filter id="filter0_d_3_60" x="9.42487" y="18.2831" width="23.3327" height="25.9298" filterUnits="userSpaceOnUse" color-interpolation-filters="sRGB">
<feFlood flood-opacity="0" result="BackgroundImageFix"/>
<feColorMatrix in="SourceAlpha" type="matrix" values="0 0 0 0 0 0 0 0 0 0 0 0 0 0 0 0 0 0 127 0" result="hardAlpha"/>
<feOffset dx="0.56474" dy="1.63147"/>
<feGaussianBlur stdDeviation="0.715337"/>
<feComposite in2="hardAlpha" operator="out"/>
<feColorMatrix type="matrix" values="0 0 0 0 0 0 0 0 0 0 0 0 0 0 0 0 0 0 0.21 0"/>
<feBlend mode="normal" in2="BackgroundImageFix" result="effect1_dropShadow_3_60"/>
<feBlend mode="normal" in="SourceGraphic" in2="effect1_dropShadow_3_60" result="shape"/>
</filter>
<filter id="filter1_d_3_60" x="16.9939" y="10.8776" width="24.9388" height="27.2797" filterUnits="userSpaceOnUse" color-interpolation-filters="sRGB">
<feFlood flood-opacity="0" result="BackgroundImageFix"/>
<feColorMatrix in="SourceAlpha" type="matrix" values="0 0 0 0 0 0 0 0 0 0 0 0 0 0 0 0 0 0 127 0" result="hardAlpha"/>
<feOffset dx="0.56474" dy="1.63147"/>
<feGaussianBlur stdDeviation="0.715337"/>
<feComposite in2="hardAlpha" operator="out"/>
<feColorMatrix type="matrix" values="0 0 0 0 0 0 0 0 0 0 0 0 0 0 0 0 0 0 0.21 0"/>
<feBlend mode="normal" in2="BackgroundImageFix" result="effect1_dropShadow_3_60"/>
<feBlend mode="normal" in="SourceGraphic" in2="effect1_dropShadow_3_60" result="shape"/>
</filter>
<radialGradient id="paint0_radial_3_60" cx="0" cy="0" r="1" gradientUnits="userSpaceOnUse" gradientTransform="translate(3.98455 3.37909) rotate(45.5579) scale(61.5221 62.3847)">
<stop stop-color="#BA91FF"/>
<stop offset="0.228154" stop-color="#BA91FF"/>
<stop offset="0.641875" stop-color="#FE75AD"/>
<stop offset="1" stop-color="#FBD6A2"/>
<stop offset="1" stop-color="#FBD5A1"/>
</radialGradient>
<linearGradient id="paint1_linear_3_60" x1="58.4898" y1="27.4327" x2="229.51" y2="36.6447" gradientUnits="userSpaceOnUse">
<stop stop-color="#BA91FF"/>
<stop offset="1" stop-color="#FBD5A1"/>
</linearGradient>
<linearGradient id="paint2_linear_3_60" x1="58.4898" y1="27.4327" x2="229.51" y2="36.6447" gradientUnits="userSpaceOnUse">
<stop stop-color="#BA91FF"/>
<stop offset="1" stop-color="#FBD5A1"/>
</linearGradient>
<linearGradient id="paint3_linear_3_60" x1="58.4898" y1="27.4326" x2="229.51" y2="36.6447" gradientUnits="userSpaceOnUse">
<stop stop-color="#BA91FF"/>
<stop offset="1" stop-color="#FBD5A1"/>
</linearGradient>
<linearGradient id="paint4_linear_3_60" x1="58.4898" y1="27.4327" x2="229.51" y2="36.6447" gradientUnits="userSpaceOnUse">
<stop stop-color="#BA91FF"/>
<stop offset="1" stop-color="#FBD5A1"/>
</linearGradient>
<linearGradient id="paint5_linear_3_60" x1="58.4898" y1="27.4326" x2="229.51" y2="36.6447" gradientUnits="userSpaceOnUse">
<stop stop-color="#BA91FF"/>
<stop offset="1" stop-color="#FBD5A1"/>
</linearGradient>
<linearGradient id="paint6_linear_3_60" x1="58.4897" y1="27.4326" x2="229.51" y2="36.6447" gradientUnits="userSpaceOnUse">
<stop stop-color="#BA91FF"/>
<stop offset="1" stop-color="#FBD5A1"/>
</linearGradient>
<linearGradient id="paint7_linear_3_60" x1="58.4898" y1="27.4327" x2="229.51" y2="36.6447" gradientUnits="userSpaceOnUse">
<stop stop-color="#BA91FF"/>
<stop offset="1" stop-color="#FBD5A1"/>
</linearGradient>
<linearGradient id="paint8_linear_3_60" x1="58.4897" y1="27.4327" x2="229.51" y2="36.6447" gradientUnits="userSpaceOnUse">
<stop stop-color="#BA91FF"/>
<stop offset="1" stop-color="#FBD5A1"/>
</linearGradient>
<linearGradient id="paint9_linear_3_60" x1="58.4898" y1="27.4326" x2="229.51" y2="36.6447" gradientUnits="userSpaceOnUse">
<stop stop-color="#BA91FF"/>
<stop offset="1" stop-color="#FBD5A1"/>
</linearGradient>
</defs>
</svg>
